<svg viewBox="0 0 93 94" fill="none" xmlns="http://www.w3.org/2000/svg"><g filter="url(#a)"><path d="m56.012 44.416-16.52-9.04c-.95-.52-2.074-.5-3.005.052A3.008 3.008 0 0 0 35 38.038v17.924c0 1.078.552 2.052 1.478 2.604a3.027 3.027 0 0 0 1.555.434c.492 0 .985-.121 1.439-.366l16.52-8.883a3.034 3.034 0 0 0 .02-5.335Zm-16.63 9.291V40.312l12.347 6.756-12.347 6.64Z" fill="#239680"/></g><g filter="url(#b)"><path d="m56.012 44.416-16.52-9.04c-.95-.52-2.074-.5-3.005.052A3.008 3.008 0 0 0 35 38.038v17.924c0 1.078.552 2.052 1.478 2.604a3.027 3.027 0 0 0 1.555.434c.492 0 .985-.121 1.439-.366l16.52-8.883a3.034 3.034 0 0 0 .02-5.335Zm-16.63 9.291V40.312l12.347 6.756-12.347 6.64Z" fill="#239680"/></g><g filter="url(#c)"><path d="m56.012 44.416-16.52-9.04c-.95-.52-2.074-.5-3.005.052A3.008 3.008 0 0 0 35 38.038v17.924c0 1.078.552 2.052 1.478 2.604a3.027 3.027 0 0 0 1.555.434c.492 0 .985-.121 1.439-.366l16.52-8.883a3.034 3.034 0 0 0 .02-5.335Zm-16.63 9.291V40.312l12.347 6.756-12.347 6.64Z" fill="#239680"/></g><g filter="url(#d)"><path d="m56.012 44.416-16.52-9.04c-.95-.52-2.074-.5-3.005.052A3.008 3.008 0 0 0 35 38.038v17.924c0 1.078.552 2.052 1.478 2.604a3.027 3.027 0 0 0 1.555.434c.492 0 .985-.121 1.439-.366l16.52-8.883a3.034 3.034 0 0 0 .02-5.335Zm-16.63 9.291V40.312l12.347 6.756-12.347 6.64Z" fill="#239680"/></g><g filter="url(#e)"><path d="m56.012 44.416-16.52-9.04c-.95-.52-2.074-.5-3.005.052A3.008 3.008 0 0 0 35 38.038v17.924c0 1.078.552 2.052 1.478 2.604a3.027 3.027 0 0 0 1.555.434c.492 0 .985-.121 1.439-.366l16.52-8.883a3.034 3.034 0 0 0 .02-5.335Zm-16.63 9.291V40.312l12.347 6.756-12.347 6.64Z" fill="#239680"/></g><path d="m56.012 44.416-16.52-9.04c-.95-.52-2.074-.5-3.005.052A3.008 3.008 0 0 0 35 38.038v17.924c0 1.078.552 2.052 1.478 2.604a3.027 3.027 0 0 0 1.555.434c.492 0 .985-.121 1.439-.366l16.52-8.883a3.034 3.034 0 0 0 .02-5.335Zm-16.63 9.291V40.312l12.347 6.756-12.347 6.64Z" fill="#E1F2EF"/><defs><filter id="a" x="30" y="30" width="32.59" height="34" filterUnits="userSpaceOnUse" color-interpolation-filters="sRGB"><feFlood flood-opacity="0" result="BackgroundImageFix"/><feBlend in="SourceGraphic" in2="BackgroundImageFix" result="shape"/><feGaussianBlur stdDeviation="2.5" result="effect1_foregroundBlur_576_1719"/></filter><filter id="b" x="25" y="25" width="42.59" height="44" filterUnits="userSpaceOnUse" color-interpolation-filters="sRGB"><feFlood flood-opacity="0" result="BackgroundImageFix"/><feBlend in="SourceGraphic" in2="BackgroundImageFix" result="shape"/><feGaussianBlur stdDeviation="5" result="effect1_foregroundBlur_576_1719"/></filter><filter id="c" x="20" y="20" width="52.59" height="54" filterUnits="userSpaceOnUse" color-interpolation-filters="sRGB"><feFlood flood-opacity="0" result="BackgroundImageFix"/><feBlend in="SourceGraphic" in2="BackgroundImageFix" result="shape"/><feGaussianBlur stdDeviation="7.5" result="effect1_foregroundBlur_576_1719"/></filter><filter id="d" x="15" y="15" width="62.59" height="64" filterUnits="userSpaceOnUse" color-interpolation-filters="sRGB"><feFlood flood-opacity="0" result="BackgroundImageFix"/><feBlend in="SourceGraphic" in2="BackgroundImageFix" result="shape"/><feGaussianBlur stdDeviation="10" result="effect1_foregroundBlur_576_1719"/></filter><filter id="e" x="0" y="0" width="92.59" height="94" filterUnits="userSpaceOnUse" color-interpolation-filters="sRGB"><feFlood flood-opacity="0" result="BackgroundImageFix"/><feBlend in="SourceGraphic" in2="BackgroundImageFix" result="shape"/><feGaussianBlur stdDeviation="17.5" result="effect1_foregroundBlur_576_1719"/></filter></defs></svg>