<svg width="0" height="0" class="hidden">
	<symbol viewBox="0 0 24 25" xmlns="http://www.w3.org/2000/svg" id="add">
		<path d="M4 12.2991H20M12 20.2991V12.2991L12 4.29907" fill="none" stroke-width="1.5" stroke-linecap="round"></path>
	</symbol>
	<symbol viewBox="0 0 24 24" xmlns="http://www.w3.org/2000/svg" id="call">
		<path d="M9.35605 12.2765L9.88638 11.7461L9.35605 12.2765ZM11.7529 14.6733L11.2225 15.2036L11.7529 14.6733ZM15.6721 21.9582L15.8348 21.226L15.6721 21.9582ZM2.07115 8.35725L2.80329 8.19455L2.07115 8.35725ZM19.4518 20.1314L18.8995 19.6239L19.4518 20.1314ZM19.4518 17.425L18.8995 17.9324L19.4518 17.425ZM3.89794 4.57756L4.4054 5.12982L3.89794 4.57756ZM6.60436 4.57756L6.09691 5.12982L6.60436 4.57756ZM18.3639 10.6267H17.6139H18.3639ZM17.6139 11.1924C17.6139 11.6066 17.9497 11.9424 18.3639 11.9424C18.7782 11.9424 19.1139 11.6066 19.1139 11.1924H17.6139ZM12.7071 4.78553C12.2929 4.78553 11.9571 5.12132 11.9571 5.53553C11.9571 5.94975 12.2929 6.28553 12.7071 6.28553V4.78553ZM13.2728 5.53553V6.28553H13.2728L13.2728 5.53553ZM18.3634 10.4639L19.1134 10.4532L18.3634 10.4639ZM13.4355 5.53605L13.4463 4.78612L13.4463 4.78612L13.4355 5.53605ZM21.8996 10.9095H22.6496H21.8996ZM21.1496 11.8995C21.1496 12.3137 21.4854 12.6495 21.8996 12.6495C22.3138 12.6495 22.6496 12.3137 22.6496 11.8995H21.1496ZM12.0001 1.25C11.5859 1.25 11.2501 1.58579 11.2501 2C11.2501 2.41421 11.5859 2.75 12.0001 2.75V1.25ZM12.99 2V2.75H12.99L12.99 2ZM21.8677 9.28659L21.1207 9.35348V9.35348L21.8677 9.28659ZM14.613 2.03187L14.5461 2.77888V2.77888L14.613 2.03187ZM18.7869 19.7381L17.9005 20.6245L18.9612 21.6851L19.8475 20.7988L18.7869 19.7381ZM3.40484 6.12879L4.29118 5.24245L3.23052 4.18179L2.34418 5.06813L3.40484 6.12879ZM17.3287 16.36L18.7869 17.8182L19.8475 16.7575L18.3893 15.2993L17.3287 16.36ZM6.21112 5.24245L7.66932 6.70065L8.72998 5.63999L7.27178 4.18179L6.21112 5.24245ZM8.09033 8.9237C7.51387 10.2462 7.80562 11.7867 8.82572 12.8068L9.88638 11.7461C9.30238 11.1621 9.13535 10.2802 9.46537 9.52308L8.09033 8.9237ZM11.2225 15.2036C12.2426 16.2237 13.7832 16.5155 15.1056 15.939L14.5062 14.564C13.7491 14.894 12.8672 14.7269 12.2832 14.1429L11.2225 15.2036ZM15.8348 21.226C9.32944 19.7804 4.24892 14.6999 2.80329 8.19455L1.33901 8.51995C2.91098 15.5938 8.43551 21.1183 15.5094 22.6903L15.8348 21.226ZM7.66932 6.70065C8.25332 7.28465 8.42035 8.16659 8.09033 8.9237L9.46537 9.52308C10.0418 8.20062 9.75008 6.66009 8.72998 5.63999L7.66932 6.70065ZM2.34418 5.06813C1.44107 5.97125 1.06195 7.27316 1.33901 8.51995L2.80329 8.19455C2.63748 7.44841 2.86437 6.66927 3.40484 6.12879L2.34418 5.06813ZM17.9005 20.6245C17.3601 21.165 16.5809 21.3918 15.8348 21.226L15.5094 22.6903C16.7562 22.9674 18.0581 22.5883 18.9612 21.6851L17.9005 20.6245ZM19.8475 20.7988C19.9128 20.7336 19.962 20.6846 20.004 20.6388L18.8995 19.6239C18.8843 19.6404 18.8629 19.6621 18.7869 19.7381L19.8475 20.7988ZM18.7869 17.8182C18.8629 17.8943 18.8843 17.9159 18.8995 17.9324L20.004 16.9175C19.962 16.8718 19.9128 16.8228 19.8475 16.7575L18.7869 17.8182ZM20.004 20.6388C20.9708 19.5867 20.9708 17.9696 20.004 16.9175L18.8995 17.9324C19.3389 18.4106 19.3389 19.1457 18.8995 19.6239L20.004 20.6388ZM18.3893 15.2993C17.3692 14.2792 15.8287 13.9875 14.5062 14.564L15.1056 15.939C15.8627 15.609 16.7447 15.776 17.3287 16.36L18.3893 15.2993ZM4.29118 5.24245C4.36725 5.16638 4.38889 5.14498 4.4054 5.12982L3.39049 4.0253C3.34476 4.06732 3.29575 4.11656 3.23052 4.18179L4.29118 5.24245ZM7.27178 4.18179C7.20656 4.11657 7.15755 4.06732 7.11182 4.0253L6.09691 5.12982C6.11342 5.14498 6.13505 5.16638 6.21112 5.24245L7.27178 4.18179ZM4.4054 5.12982C4.88362 4.69039 5.61869 4.69039 6.09691 5.12982L7.11182 4.0253C6.05973 3.05856 4.44258 3.05856 3.39049 4.0253L4.4054 5.12982ZM8.82572 12.8068L11.2225 15.2036L12.2832 14.1429L9.88638 11.7461L8.82572 12.8068ZM17.6139 10.6267V11.1924H19.1139V10.6267H17.6139ZM12.7071 6.28553H13.2728V4.78553H12.7071V6.28553ZM19.1139 10.6267C19.1139 10.5446 19.114 10.4957 19.1134 10.4532L17.6135 10.4747C17.6139 10.5037 17.6139 10.5395 17.6139 10.6267H19.1139ZM13.2728 6.28553C13.36 6.28553 13.3957 6.28555 13.4248 6.28597L13.4463 4.78612C13.4038 4.78551 13.3548 4.78553 13.2728 4.78553L13.2728 6.28553ZM19.1134 10.4532C19.0688 7.342 16.5575 4.83068 13.4463 4.78612L13.4248 6.28597C15.7244 6.3189 17.5806 8.17509 17.6135 10.4747L19.1134 10.4532ZM21.1496 10.9095V11.8995H22.6496V10.9095H21.1496ZM12.0001 2.75L12.99 2.75V1.25L12.0001 1.25V2.75ZM22.6496 10.9095C22.6496 10.0811 22.6503 9.61749 22.6147 9.21971L21.1207 9.35348C21.1488 9.66768 21.1496 10.0487 21.1496 10.9095H22.6496ZM12.99 2.75C13.8509 2.75 14.2319 2.75075 14.5461 2.77888L14.6799 1.28486C14.2821 1.24925 13.8184 1.25 12.99 1.25L12.99 2.75ZM22.6147 9.21971C22.2373 5.00365 18.8959 1.66233 14.6799 1.28486L14.5461 2.77888C18.0394 3.09165 20.8079 5.86017 21.1207 9.35348L22.6147 9.21971Z" stroke="none"></path>
	</symbol>
	<symbol viewBox="0 0 24 24" xmlns="http://www.w3.org/2000/svg" id="check-circle">
		<path d="M3.75001 12C3.74979 10.5518 4.13082 9.12893 4.85482 7.87459C5.57882 6.62025 6.62026 5.57861 7.87446 4.85437C9.12865 4.13013 10.5514 3.74881 11.9997 3.74875C13.448 3.7487 14.8708 4.1299 16.125 4.85405C16.2972 4.95193 16.5011 4.97775 16.6922 4.92586C16.8833 4.87397 17.0462 4.74858 17.1452 4.57707C17.2442 4.40555 17.2714 4.20183 17.2208 4.01036C17.1702 3.81888 17.0459 3.65521 16.875 3.55505C15.0163 2.48192 12.8554 2.05208 10.7275 2.33219C8.59964 2.61229 6.62362 3.5867 5.10594 5.10428C3.58826 6.62186 2.61373 8.59782 2.33349 10.7257C2.05324 12.8536 2.48294 15.0145 3.55595 16.8733C4.62896 18.732 6.28531 20.1848 8.26813 21.0063C10.2509 21.8278 12.4494 21.9721 14.5226 21.4168C16.5958 20.8615 18.4278 19.6377 19.7345 17.9351C21.0413 16.2325 21.7497 14.1463 21.75 12C21.75 11.8011 21.671 11.6104 21.5303 11.4697C21.3897 11.3291 21.1989 11.25 21 11.25C20.8011 11.25 20.6103 11.3291 20.4697 11.4697C20.329 11.6104 20.25 11.8011 20.25 12C20.25 14.1881 19.3808 16.2865 17.8336 17.8337C16.2865 19.3808 14.1881 20.25 12 20.25C9.81198 20.25 7.71356 19.3808 6.16638 17.8337C4.61921 16.2865 3.75001 14.1881 3.75001 12Z" stroke="none"></path>
		<path d="M23.031 5.03097C23.1007 4.96124 23.156 4.87846 23.1938 4.78735C23.2315 4.69624 23.2509 4.59859 23.2509 4.49997C23.2509 4.40135 23.2315 4.3037 23.1938 4.2126C23.156 4.12149 23.1007 4.0387 23.031 3.96897C22.9612 3.89924 22.8785 3.84392 22.7873 3.80619C22.6962 3.76845 22.5986 3.74902 22.5 3.74902C22.4014 3.74902 22.3037 3.76845 22.2126 3.80619C22.1215 3.84392 22.0387 3.89924 21.969 3.96897L12 13.9395L8.03097 9.96897C7.96124 9.89924 7.87846 9.84392 7.78735 9.80619C7.69624 9.76845 7.59859 9.74902 7.49997 9.74902C7.40136 9.74902 7.3037 9.76845 7.2126 9.80619C7.12149 9.84392 7.0387 9.89924 6.96897 9.96897C6.89924 10.0387 6.84392 10.1215 6.80619 10.2126C6.76845 10.3037 6.74902 10.4014 6.74902 10.5C6.74902 10.5986 6.76845 10.6962 6.80619 10.7873C6.84392 10.8785 6.89924 10.9612 6.96897 11.031L11.469 15.531C11.5386 15.6008 11.6214 15.6562 11.7125 15.694C11.8036 15.7318 11.9013 15.7513 12 15.7513C12.0986 15.7513 12.1963 15.7318 12.2874 15.694C12.3785 15.6562 12.4613 15.6008 12.531 15.531L23.031 5.03097Z" stroke="none"></path>
	</symbol>
	<symbol viewBox="0 0 24 24" xmlns="http://www.w3.org/2000/svg" id="close">
		<path d="M7.25736 17.4497L6.55026 16.7426L10.7929 12.5L6.55026 8.25736L7.25736 7.55025L11.5 11.7929L15.7426 7.55025L16.4498 8.25736L12.2071 12.5L16.4498 16.7426L15.7426 17.4497L11.5 13.2071L7.25736 17.4497Z" stroke="none"></path>
	</symbol>
	<symbol viewBox="0 0 16 16" xmlns="http://www.w3.org/2000/svg" id="danger-circle">
		<path d="M8.66671 10.6667C8.66671 11.0349 8.36823 11.3333 8.00004 11.3333C7.63185 11.3333 7.33337 11.0349 7.33337 10.6667C7.33337 10.2985 7.63185 10 8.00004 10C8.36823 10 8.66671 10.2985 8.66671 10.6667Z" stroke="none"></path>
		<path d="M8.75004 4.66667C8.75004 4.25246 8.41425 3.91667 8.00004 3.91667C7.58583 3.91667 7.25004 4.25246 7.25004 4.66667H8.75004ZM7.25004 8.66667C7.25004 9.08088 7.58583 9.41667 8.00004 9.41667C8.41425 9.41667 8.75004 9.08088 8.75004 8.66667H7.25004ZM7.25004 4.66667V8.66667H8.75004V4.66667H7.25004ZM13.9167 8C13.9167 11.2677 11.2677 13.9167 8.00004 13.9167V15.4167C12.0962 15.4167 15.4167 12.0961 15.4167 8H13.9167ZM8.00004 13.9167C4.73236 13.9167 2.08337 11.2677 2.08337 8H0.583374C0.583374 12.0961 3.90393 15.4167 8.00004 15.4167V13.9167ZM2.08337 8C2.08337 4.73232 4.73236 2.08334 8.00004 2.08334V0.583336C3.90393 0.583336 0.583374 3.90389 0.583374 8H2.08337ZM8.00004 2.08334C11.2677 2.08334 13.9167 4.73232 13.9167 8H15.4167C15.4167 3.90389 12.0962 0.583336 8.00004 0.583336V2.08334Z" stroke="none"></path>
	</symbol>
	<symbol viewBox="0 0 24 25" xmlns="http://www.w3.org/2000/svg" id="down-2">
		<path d="M17 10.2759L15.2527 12.0388C13.8592 13.4448 13.1625 14.1477 12.3133 14.256C12.1053 14.2825 11.8947 14.2825 11.6867 14.256C10.8375 14.1477 10.1408 13.4448 8.74731 12.0388L7 10.2759" fill="none" stroke-width="1.5" stroke-linecap="round"></path>
	</symbol>
	<symbol viewBox="0 0 24 24" xmlns="http://www.w3.org/2000/svg" id="tick">
		<path d="M20 7L14.6093 13.4688C12.4732 16.0322 11.4051 17.3139 10 17.3139C8.59488 17.3139 7.52681 16.0322 5.39067 13.4688L4 11.8" fill="none" stroke-width="1.5" stroke-linecap="round"></path>
	</symbol>
	<symbol viewBox="0 0 24 24" xmlns="http://www.w3.org/2000/svg" id="youtube">
		<path d="M15.6941 10.9214L10.392 8.02027C10.0871 7.85346 9.72674 7.85968 9.42792 8.03675C9.12891 8.21399 8.95056 8.5271 8.95056 8.87464V14.6271C8.95056 14.973 9.12781 15.2855 9.4248 15.463C9.57989 15.5556 9.75183 15.6021 9.92413 15.6021C10.082 15.6021 10.2402 15.5631 10.3857 15.4847L15.6881 12.6336C16.0029 12.4642 16.1993 12.137 16.2008 11.7794C16.2021 11.4218 16.008 11.0931 15.6941 10.9214ZM10.357 13.9034V9.60413L14.3198 11.7725L10.357 13.9034Z" stroke="none"></path>
		<path d="M23.8235 7.19659L23.8224 7.18561C23.8021 6.99243 23.5997 5.27417 22.7644 4.40021C21.7989 3.37225 20.7043 3.24738 20.1779 3.1875C20.1343 3.18256 20.0944 3.17798 20.0587 3.17322L20.0167 3.16882C16.8439 2.93811 12.0522 2.90662 12.0042 2.90643L12 2.90625L11.9958 2.90643C11.9478 2.90662 7.15613 2.93811 3.95471 3.16882L3.91241 3.17322C3.87836 3.1778 3.84082 3.18201 3.79999 3.18677C3.2796 3.24683 2.19672 3.37189 1.22845 4.43701C0.432861 5.30164 0.202881 6.98309 0.17926 7.17206L0.176514 7.19659C0.169373 7.27698 0 9.19061 0 11.1118V12.9077C0 14.8288 0.169373 16.7424 0.176514 16.823L0.177795 16.8351C0.19812 17.0251 0.400269 18.7119 1.23175 19.5862C2.13959 20.5798 3.28748 20.7112 3.90491 20.7819C4.0025 20.7931 4.08655 20.8026 4.14386 20.8127L4.19934 20.8204C6.03131 20.9947 11.7751 21.0806 12.0187 21.084L12.026 21.0842L12.0333 21.084C12.0813 21.0839 16.8728 21.0524 20.0457 20.8217L20.0876 20.8173C20.1277 20.812 20.1727 20.8072 20.2222 20.8021C20.7396 20.7471 21.8167 20.6331 22.7715 19.5824C23.5671 18.7176 23.7973 17.0361 23.8207 16.8474L23.8235 16.8228C23.8306 16.7422 24.0002 14.8288 24.0002 12.9077V11.1118C24 9.19061 23.8306 7.27716 23.8235 7.19659ZM22.5936 12.9077C22.5936 14.6858 22.4383 16.517 22.4236 16.6851C22.364 17.1482 22.1213 18.212 21.7337 18.6334C21.136 19.2909 20.5221 19.3561 20.0739 19.4035C20.0197 19.4092 19.9695 19.4147 19.9241 19.4203C16.8552 19.6423 12.2444 19.6763 12.032 19.6776C11.7938 19.6741 6.13403 19.5875 4.35791 19.4225C4.26691 19.4077 4.16858 19.3964 4.06494 19.3846C3.53925 19.3244 2.81964 19.242 2.2663 18.6334L2.2533 18.6194C1.87244 18.2227 1.63678 17.2278 1.5769 16.6906C1.56573 16.5635 1.40643 14.7107 1.40643 12.9077V11.1118C1.40643 9.33563 1.56134 7.50641 1.57636 7.33484C1.64758 6.78937 1.89478 5.78998 2.2663 5.38605C2.88226 4.70856 3.53174 4.63348 3.9613 4.58386C4.00232 4.5791 4.04059 4.57471 4.07593 4.57013C7.18945 4.34711 11.8334 4.31396 12 4.31268C12.1666 4.31378 16.8089 4.34711 19.8948 4.57013C19.9327 4.57489 19.9741 4.57965 20.0186 4.58478C20.4604 4.63513 21.1282 4.7113 21.741 5.36499L21.7467 5.37103C22.1276 5.76782 22.3632 6.78003 22.4231 7.32806C22.4337 7.448 22.5936 9.30487 22.5936 11.1118V12.9077Z" stroke="none"></path>
	</symbol>
	<symbol viewBox="0 0 24 24" xmlns="http://www.w3.org/2000/svg" id="left-2">
		<path d="M14 17L12.237 15.2527C10.8311 13.8592 10.1281 13.1625 10.0199 12.3133C9.99337 12.1053 9.99337 11.8947 10.0199 11.6867C10.1281 10.8375 10.8311 10.1408 12.237 8.74731L14 7" fill="none" stroke-width="1.5" stroke-linecap="round"></path>
	</symbol>
	<symbol viewBox="0 0 24 24" xmlns="http://www.w3.org/2000/svg" id="right-2">
		<path d="M10 7L11.763 8.74731C13.1689 10.1408 13.8719 10.8375 13.9801 11.6867C14.0066 11.8947 14.0066 12.1053 13.9801 12.3133C13.8719 13.1625 13.1689 13.8592 11.763 15.2527L10 17" fill="none" stroke-width="1.5" stroke-linecap="round"></path>
	</symbol>
	<symbol viewBox="0 0 48 48" xmlns="http://www.w3.org/2000/svg" id="tick-circle">
		<path d="M34 18L27.2617 25.5264C24.5915 28.5088 23.2564 30 21.5 30C19.7436 30 18.4085 28.5088 15.7383 25.5264L14 23.5847M44 24C44 35.0457 35.0457 44 24 44C12.9543 44 4 35.0457 4 24C4 12.9543 12.9543 4 24 4C35.0457 4 44 12.9543 44 24Z" fill="none" stroke-width="1.5" stroke-linecap="round"></path>
	</symbol>
	<symbol viewBox="0 0 25 24" xmlns="http://www.w3.org/2000/svg" id="location">
		<path d="M15.1141 19.7005L14.5239 19.2377L15.1141 19.7005ZM9.55252 19.7005L8.96235 20.1633L9.55252 19.7005ZM12.3333 22.0055V21.2555V22.0055ZM19.5833 9.6087C19.5833 10.8352 18.9437 12.4764 17.9371 14.256C16.947 16.0063 15.6675 17.7794 14.5239 19.2377L15.7043 20.1633C16.8704 18.6762 18.2005 16.837 19.2427 14.9945C20.2682 13.1814 21.0833 11.2494 21.0833 9.6087H19.5833ZM10.1427 19.2377C8.99909 17.7794 7.71959 16.0063 6.72956 14.256C5.72293 12.4764 5.08331 10.8352 5.08331 9.6087H3.58331C3.58331 11.2494 4.39842 13.1814 5.42395 14.9945C6.46609 16.837 7.79619 18.6762 8.96235 20.1633L10.1427 19.2377ZM5.08331 9.6087C5.08331 5.21571 8.38009 1.75 12.3333 1.75V0.25C7.44998 0.25 3.58331 4.49277 3.58331 9.6087H5.08331ZM12.3333 1.75C16.2865 1.75 19.5833 5.21571 19.5833 9.6087H21.0833C21.0833 4.49277 17.2167 0.25 12.3333 0.25V1.75ZM14.5239 19.2377C13.905 20.027 13.4974 20.5426 13.1325 20.8741C12.7997 21.1764 12.5775 21.2555 12.3333 21.2555V22.7555C13.0624 22.7555 13.6281 22.4504 14.1411 21.9844C14.622 21.5476 15.1182 20.9107 15.7043 20.1633L14.5239 19.2377ZM8.96235 20.1633C9.54842 20.9107 10.0447 21.5476 10.5256 21.9844C11.0386 22.4504 11.6043 22.7555 12.3333 22.7555V21.2555C12.0891 21.2555 11.867 21.1764 11.5341 20.8741C11.1692 20.5426 10.7617 20.027 10.1427 19.2377L8.96235 20.1633ZM8.58331 10C8.58331 12.0711 10.2622 13.75 12.3333 13.75V12.25C11.0907 12.25 10.0833 11.2426 10.0833 10H8.58331ZM12.3333 13.75C14.4044 13.75 16.0833 12.0711 16.0833 10H14.5833C14.5833 11.2426 13.576 12.25 12.3333 12.25V13.75ZM16.0833 10C16.0833 7.92893 14.4044 6.25 12.3333 6.25V7.75C13.576 7.75 14.5833 8.75736 14.5833 10H16.0833ZM12.3333 6.25C10.2622 6.25 8.58331 7.92893 8.58331 10H10.0833C10.0833 8.75736 11.0907 7.75 12.3333 7.75V6.25Z" stroke="none"></path>
	</symbol>
	<symbol viewBox="0 0 24 24" xmlns="http://www.w3.org/2000/svg" id="whatsapp">
		<path d="M12 0.959961C5.90854 0.959961 0.959961 5.90854 0.959961 12C0.959961 13.9579 1.49693 15.7852 2.39246 17.3803L0.977773 22.4306C0.955172 22.5114 0.954151 22.5967 0.974812 22.6781C0.995472 22.7594 1.03709 22.8339 1.09552 22.8941C1.15395 22.9544 1.22715 22.9982 1.30782 23.0213C1.38849 23.0445 1.47381 23.046 1.55527 23.0259L6.82121 21.7209C8.36858 22.547 10.1244 23.04 12 23.04C18.0914 23.04 23.04 18.0914 23.04 12C23.04 5.90854 18.0914 0.959961 12 0.959961ZM12 1.91996C17.5725 1.91996 22.08 6.42738 22.08 12C22.08 17.5725 17.5725 22.08 12 22.08C10.2134 22.08 8.54018 21.6142 7.08559 20.8003C6.9792 20.7408 6.85419 20.7241 6.7359 20.7534L2.12434 21.8962L3.3609 17.4843C3.37859 17.422 3.38348 17.3567 3.37526 17.2924C3.36704 17.2281 3.34589 17.1662 3.31309 17.1103C2.42909 15.6113 1.91996 13.8672 1.91996 12C1.91996 6.42738 6.42738 1.91996 12 1.91996ZM7.9884 6.23996C7.6807 6.23996 7.24126 6.35444 6.88027 6.7434C6.66345 6.97702 5.75996 7.85733 5.75996 9.40496C5.75996 11.0185 6.87903 12.4108 7.01434 12.5896H7.01527V12.5906C7.00244 12.5737 7.18702 12.841 7.4334 13.1615C7.67978 13.482 8.02431 13.903 8.45715 14.3587C9.32281 15.2702 10.5399 16.3235 12.0506 16.9678C12.7463 17.264 13.2951 17.4429 13.7109 17.5734C14.4815 17.8154 15.1834 17.7786 15.7106 17.7009C16.1052 17.6428 16.5393 17.4533 16.9687 17.1815C17.3982 16.9098 17.819 16.5718 18.0046 16.0584C18.1376 15.6903 18.2052 15.3502 18.2296 15.0703C18.2419 14.9303 18.2434 14.8068 18.2343 14.6925C18.2252 14.5781 18.235 14.4905 18.1284 14.3156C17.9049 13.9487 17.6518 13.9391 17.3878 13.8084C17.2411 13.7358 16.8233 13.5318 16.4043 13.3321C15.9858 13.1327 15.6234 12.9561 15.4003 12.8765C15.2593 12.8258 15.0871 12.7528 14.8387 12.7809C14.5903 12.809 14.345 12.9882 14.2021 13.2C14.0668 13.4006 13.5217 14.044 13.3556 14.2331C13.3534 14.2317 13.3678 14.2384 13.3021 14.2059C13.0966 14.1042 12.8453 14.0177 12.4734 13.8215C12.1015 13.6253 11.6362 13.3356 11.1271 12.8868V12.8859C10.3694 12.2188 9.83865 11.3813 9.67121 11.1C9.68249 11.0865 9.66987 11.1028 9.69371 11.0793L9.69465 11.0784C9.86578 10.9098 10.0174 10.7085 10.1456 10.5609C10.3273 10.3516 10.4075 10.1671 10.4943 9.99465C10.6675 9.65105 10.5711 9.27296 10.4709 9.07402V9.07309C10.4778 9.08685 10.4167 8.95204 10.3509 8.79652C10.2849 8.64057 10.2008 8.43838 10.1109 8.22277C9.93118 7.79156 9.73053 7.30792 9.61121 7.02465V7.02371C9.47064 6.69005 9.28047 6.44968 9.03184 6.33371C8.7832 6.21774 8.56353 6.25071 8.55465 6.25027H8.55371C8.37628 6.24209 8.18158 6.23996 7.9884 6.23996ZM7.9884 7.19996C8.17346 7.19996 8.3559 7.20222 8.50871 7.20934C8.66591 7.21717 8.65613 7.21781 8.6259 7.20371C8.59518 7.18939 8.63686 7.18474 8.72621 7.39684C8.84305 7.67421 9.04468 8.1596 9.22496 8.59215C9.3151 8.80842 9.39946 9.01139 9.46684 9.17059C9.53421 9.32978 9.57072 9.41866 9.61309 9.5034V9.50434L9.61402 9.50527C9.65556 9.58723 9.65189 9.53476 9.63746 9.5634C9.53617 9.76444 9.52242 9.8138 9.41996 9.93184C9.26395 10.1116 9.10482 10.312 9.02059 10.395C8.94689 10.4674 8.81392 10.5801 8.7309 10.8009C8.64775 11.022 8.68656 11.3254 8.81996 11.5518C8.99758 11.8534 9.58288 12.806 10.4925 13.6068C11.0653 14.1118 11.599 14.446 12.0253 14.6709C12.4516 14.8958 12.7988 15.0271 12.8765 15.0656C13.061 15.1569 13.2627 15.2278 13.4971 15.1996C13.7316 15.1715 13.9338 15.0292 14.0625 14.8837L14.0634 14.8828C14.2347 14.6886 14.7436 14.1075 14.9878 13.7493C14.9981 13.753 14.9947 13.7502 15.0759 13.7793V13.7803H15.0768C15.1139 13.7935 15.578 14.0012 15.9918 14.1984C16.4057 14.3956 16.8257 14.6005 16.9621 14.6681C17.1591 14.7656 17.2522 14.829 17.2762 14.8293C17.2778 14.8716 17.2795 14.9173 17.2734 14.9868C17.2566 15.1796 17.205 15.4465 17.1018 15.7321C17.0513 15.872 16.788 16.1604 16.4559 16.3706C16.1238 16.5807 15.7196 16.7292 15.57 16.7512C15.1199 16.8175 14.5856 16.8417 13.9987 16.6575C13.5918 16.5297 13.0844 16.3644 12.4275 16.0846C11.0951 15.5164 9.96264 14.5495 9.15371 13.6978C8.74924 13.2719 8.42519 12.8755 8.19465 12.5756C7.96454 12.2762 7.86405 12.1205 7.78027 12.0103L7.77934 12.0093C7.63062 11.8127 6.71996 10.546 6.71996 9.40496C6.71996 8.1974 7.28084 7.72385 7.58434 7.39684C7.74367 7.22516 7.91786 7.19996 7.9884 7.19996Z" stroke="none"></path>
	</symbol>
	<symbol viewBox="0 0 24 24" xmlns="http://www.w3.org/2000/svg" id="viber">
		<path d="M14.2549 0H9.68349C4.89539 0 1 3.89475 1 8.6817V12.7996C1 16.3645 3.19064 19.5684 6.4846 20.8734V23.5429C6.4846 23.7237 6.59104 23.8875 6.7564 23.9607C6.81577 23.9871 6.87894 24 6.94165 24C7.0528 24 7.16281 23.9594 7.24851 23.8818L9.89862 21.4813H14.2549C19.043 21.4813 22.9384 17.5866 22.9384 12.7996V8.6817C22.9384 3.89475 19.043 0 14.2549 0ZM22.0243 12.7996C22.0243 17.0827 18.5391 20.5672 14.2549 20.5672H9.72234C9.60894 20.5672 9.49962 20.6092 9.41547 20.6855L7.3987 22.5124V20.5565C7.3987 20.3628 7.27662 20.1901 7.09384 20.1258C3.99582 19.0305 1.9141 16.0865 1.9141 12.7996V8.6817C1.9141 4.39865 5.39933 0.914099 9.68349 0.914099H14.2549C18.5391 0.914099 22.0243 4.39865 22.0243 8.6817V12.7996Z" stroke="none"></path>
		<path d="M18.0095 13.9367L15.2002 12.112C14.8929 11.9125 14.5276 11.8446 14.1694 11.9187C13.811 11.9942 13.5032 12.2058 13.3033 12.5142L13.1712 12.7172C11.9554 12.3155 10.6148 11.8022 9.81229 9.47904L10.1446 9.19028H10.1448C10.715 8.69438 10.775 7.82672 10.2789 7.25541L8.0814 4.72733C7.91576 4.53678 7.627 4.51713 7.43641 4.68226L6.05681 5.88156C4.84631 6.9336 5.41205 8.48999 5.59797 9.00147C5.6062 9.02423 5.61626 9.04613 5.62809 9.06752C5.67608 9.15367 6.82204 11.1984 8.67232 13.0832C10.5302 14.9757 13.8847 16.7236 13.9875 16.7744C14.3707 17.0231 14.8017 17.1422 15.2279 17.1422C15.9764 17.1422 16.7106 16.7753 17.1483 16.1022L18.1439 14.5691C18.2813 14.3571 18.221 14.0741 18.0095 13.9367ZM16.3817 15.6042C15.9697 16.2384 15.119 16.4187 14.4468 15.9853C14.4134 15.9679 11.0812 14.2325 9.32467 12.4432C7.68303 10.7708 6.59306 8.91313 6.4442 8.6538C6.08199 7.63882 6.14607 7.01481 6.65623 6.57161L7.69126 5.67223L9.58889 7.85528C9.75736 8.04898 9.73798 8.3324 9.54492 8.50023L8.98412 8.98762C8.84751 9.10637 8.79371 9.29426 8.84705 9.46702C9.80333 12.574 11.6626 13.1841 13.0201 13.63L13.2178 13.6951C13.4156 13.7621 13.6325 13.6858 13.7456 13.5108L14.0699 13.0118C14.1369 12.9087 14.239 12.8386 14.3578 12.8136C14.4769 12.7882 14.5988 12.8119 14.7021 12.8788L17.1282 14.4544L16.3817 15.6042Z" stroke="none"></path>
		<path d="M13.0123 7.42616C12.769 7.35605 12.5164 7.49755 12.4475 7.74079C12.3785 7.98362 12.5193 8.23623 12.7619 8.30543C13.443 8.49913 13.9853 9.04279 14.1774 9.72434C14.2341 9.92562 14.4176 10.0573 14.6171 10.0573C14.6582 10.0573 14.6999 10.052 14.7414 10.0403C14.9842 9.9716 15.1257 9.7194 15.0572 9.47616C14.7798 8.49154 13.996 7.70601 13.0123 7.42616Z" stroke="none"></path>
		<path d="M16.4906 10.1546C16.5316 10.1546 16.5734 10.1493 16.6149 10.1377C16.8579 10.0689 16.9992 9.8163 16.9307 9.57351C16.3915 7.66181 14.8697 6.13668 12.9594 5.59307C12.7166 5.523 12.4637 5.66537 12.3948 5.90775C12.3258 6.15053 12.4666 6.40314 12.7094 6.47234C14.3167 6.92939 15.5972 8.21306 16.0509 9.82165C16.1078 10.023 16.2911 10.1546 16.4906 10.1546Z" stroke="none"></path>
		<path d="M12.7625 3.4652C12.5193 3.39514 12.2667 3.53664 12.1977 3.77988C12.1287 4.02271 12.2695 4.27532 12.5121 4.34452C15.2359 5.11936 17.4053 7.29391 18.1739 10.0192C18.2306 10.2205 18.4141 10.3522 18.6136 10.3522C18.6546 10.3522 18.6964 10.3469 18.7379 10.3353C18.9807 10.2665 19.1222 10.0139 19.0537 9.77107C18.1996 6.74266 15.7889 4.32665 12.7625 3.4652Z" stroke="none"></path>
	</symbol>
	<symbol viewBox="0 0 24 24" xmlns="http://www.w3.org/2000/svg" id="telegram">
		<path d="M23.8214 0.961738C23.6138 0.72924 23.2861 0.666897 23.0147 0.78549L0.42111 10.676C0.170799 10.7857 0.00626892 11.0309 0.000175217 11.3046C-0.00591849 11.5779 0.147362 11.8301 0.392985 11.951L5.78779 14.6041L7.13215 22.6694C7.17575 22.9755 7.41621 23.2216 7.72934 23.2661C7.95434 23.2984 8.17793 23.2192 8.33261 23.0598L12.5916 18.8008L18.6694 23.1423C18.8644 23.2811 19.1157 23.3116 19.3369 23.2239C19.5586 23.1363 19.7208 22.9417 19.7677 22.7078L23.9864 1.56736C24.0281 1.35783 23.9742 1.1333 23.8214 0.961738ZM6.34466 13.3109L2.37203 11.3571L18.0666 4.48671L6.34466 13.3109ZM8.54496 15.401L7.89105 18.6705L7.18559 14.4377L15.8091 7.94606L8.73667 15.0424C8.6373 15.1418 8.57121 15.2712 8.54496 15.401ZM8.97292 20.4306L9.71073 16.743L11.4315 17.9721L8.97292 20.4306ZM18.6014 21.3653L10.3173 15.4483L22.1517 3.57453L18.6014 21.3653Z" stroke="none"></path>
	</symbol>
	<symbol viewBox="0 0 24 24" xmlns="http://www.w3.org/2000/svg" id="burger">
		<path d="M5 18H19M5 6H19M5 12H19" fill="none" stroke-width="1.5" stroke-linecap="round"></path>
	</symbol>
	<symbol viewBox="0 0 36 60" xmlns="http://www.w3.org/2000/svg" id="logo">
		<path fill-rule="evenodd" clip-rule="evenodd" d="M15.1925 1.14408C12.1633 0.475688 9.46594 -0.569822 6.29209 0.382266C5.20286 0.641074 4.11149 1.09881 3.12089 1.86802C-2.73454 6.39255 0.757613 21.5338 4.58156 26.1391C5.16927 27.4301 5.74063 28.3748 6.23166 28.6596C7.38203 29.3168 13.0073 29.3514 18.0008 29.2713C22.9924 29.3514 28.6164 29.3168 29.7675 28.6596C30.2585 28.3748 30.8311 27.4301 31.4188 26.1391C35.2435 21.5338 38.7355 6.39255 32.8763 1.86802C31.8848 1.09881 30.7949 0.641074 29.7069 0.382266C26.535 -0.569822 23.8351 0.475688 20.8059 1.14408C18.8752 1.35618 17.122 1.35618 15.1925 1.14408ZM15.6678 2.7633C15.6678 2.7633 8.38986 0.954707 5.27447 2.75464C-0.678884 6.19435 2.29717 18.7298 4.83267 23.4026C6.31057 26.1258 10.8136 27.8444 18.4821 28.0599C26.1504 28.2752 27.9089 27.2 30.0909 24.4052C34.6512 18.5645 38.0282 0.0745823 27.9096 2.40493C7.95535 7.00161 20.5122 4.34175 15.6678 2.7633Z" stroke="none"></path>
		<path fill-rule="evenodd" clip-rule="evenodd" d="M5.51812 32.1201C5.51812 32.1201 5.44916 30.8715 6.86913 30.6336C8.28909 30.3959 15.3882 30.7128 16.5334 30.6534C17.6786 30.5939 17.6786 30.5939 17.6786 30.5939C17.6786 30.5939 12.1134 31.8624 9.86917 32.0804C7.62496 32.2986 6.3653 32.2193 5.51812 32.1201Z" stroke="none"></path>
		<path fill-rule="evenodd" clip-rule="evenodd" d="M5.9303 35.2281C5.9303 35.2281 5.60971 33.7614 8.17452 33.4839C9.2163 33.3711 10.4591 33.3876 11.942 33.2734C15.6758 32.9857 23.5755 32.2796 30.4802 29.6782C30.4802 29.6782 30.4802 31.2242 29.2893 31.8982C28.0986 32.572 21.5877 33.7804 18.7368 34.2502C15.8857 34.72 11.3807 34.9307 5.9303 35.2281Z" stroke="none"></path>
		<path fill-rule="evenodd" clip-rule="evenodd" d="M6.34241 38.0822C6.34241 38.0822 6.02181 36.6154 8.58663 36.3378C9.62841 36.2251 10.8715 36.2415 12.3541 36.1273C16.0879 35.8398 23.071 35.4849 29.9756 32.8833C29.9756 32.8833 29.9756 34.4295 28.7848 35.1033C27.594 35.7771 21.9999 36.6345 19.1489 37.1041C16.2978 37.5739 11.7928 37.7848 6.34241 38.0822Z" stroke="none"></path>
		<path fill-rule="evenodd" clip-rule="evenodd" d="M6.70861 40.7781C6.70861 40.7781 6.38819 39.3115 8.95283 39.034C9.99479 38.9212 11.2379 38.9375 12.7204 38.8235C14.8495 38.6597 17.7808 38.4132 21.3515 37.827C24.0423 37.3855 27.265 36.7931 29.8378 35.6584C29.8378 35.6584 29.8378 37.2046 28.6471 37.8784C27.4562 38.5524 22.3662 39.3305 19.5151 39.8003C16.664 40.2701 12.1592 40.4807 6.70861 40.7781Z" stroke="none"></path>
		<path fill-rule="evenodd" clip-rule="evenodd" d="M7.21253 43.5133C7.21253 43.5133 6.89193 42.0465 9.45675 41.7689C10.4985 41.6562 11.7417 41.6724 13.2242 41.5584C18.3236 41.1665 24.5745 40.7686 29.1967 38.7305C29.1967 38.7305 29.2422 40.3266 27.9715 40.881C22.712 43.176 11.8764 43.0678 7.21253 43.5133Z" stroke="none"></path>
		<path fill-rule="evenodd" clip-rule="evenodd" d="M7.67052 46.1296C7.67052 46.1296 7.35009 44.663 9.91474 44.3854C10.9567 44.2727 12.1998 44.2889 13.6823 44.175C18.4688 43.807 24.3027 43.5004 28.6472 41.5847C28.6472 41.5847 28.7249 43.2393 27.4219 43.7354C22.5018 45.6086 12.0422 45.5447 7.67052 46.1296Z" stroke="none"></path>
		<path fill-rule="evenodd" clip-rule="evenodd" d="M8.14458 48.7259C8.14458 48.7259 8.14458 47.6397 10.2729 47.3776C12.4015 47.1154 17.6574 46.7033 20.8283 46.2913C23.9993 45.8792 25.4328 45.5795 26.4319 45.2051C27.4308 44.8305 28.039 44.3809 28.039 44.3809C28.039 44.3809 28.3877 45.0162 27.1703 46.0664C26.1996 46.9042 23.5243 47.2128 21.2436 47.5237C18.4504 47.9042 15.554 48.1524 13.0981 48.3972C11.445 48.562 8.12965 48.5368 8.14458 48.7259Z" stroke="none"></path>
		<path fill-rule="evenodd" clip-rule="evenodd" d="M8.59967 51.3677C8.59967 51.3677 8.59968 50.2815 10.728 50.0192C12.8565 49.757 16.4098 49.5754 19.5808 49.1633C22.7519 48.7514 24.9744 48.3542 25.9735 47.9798C26.9725 47.6054 27.5806 47.1558 27.5806 47.1558C27.5806 47.1558 27.7967 48.3199 26.284 49.028C22.5054 50.7966 15.0494 50.7784 10.4702 51.2814C9.44597 51.3939 8.59114 51.2554 8.59967 51.3677Z" stroke="none"></path>
		<path fill-rule="evenodd" clip-rule="evenodd" d="M9.11377 53.7645C9.11377 53.7645 9.43437 52.7143 10.9917 52.5556C12.549 52.3969 15.2512 52.2981 19.2589 51.8023C23.2668 51.3067 24.1789 50.9784 25.1904 50.6529C26.2022 50.3272 27.0455 49.8599 27.0455 49.8599C27.0455 49.8599 26.925 50.9983 26.3355 51.4257C23.9631 53.1459 14.5242 53.7248 11.6329 53.7248C10.5567 53.7248 9.34303 53.6655 9.11377 53.7645Z" stroke="none"></path>
		<path fill-rule="evenodd" clip-rule="evenodd" d="M9.96045 56.0435C9.96045 56.0435 10.4415 54.9933 12.3195 54.8743C16.4754 54.6109 22.0861 54.3759 25.831 52.6543C26.5639 52.3174 26.5866 52.3174 26.5866 52.3174C26.5866 52.3174 26.5822 53.5326 25.6248 53.9426C21.9409 55.5205 17.1809 55.7241 14.5097 55.8374C12.8359 55.9082 11.1103 55.9948 9.96045 56.0435Z" stroke="none"></path>
		<path fill-rule="evenodd" clip-rule="evenodd" d="M11.6323 58.1055C11.6323 58.1055 11.976 57.372 13.1897 57.2331C16.7536 56.8257 20.3394 56.6879 23.8616 55.727C24.8785 55.4494 25.6249 54.9736 25.6249 54.9736C25.6249 54.9736 25.5256 56.199 24.4342 56.5593C20.5106 57.855 14.7777 58.1571 11.6323 58.1055Z" stroke="none"></path>
		<path fill-rule="evenodd" clip-rule="evenodd" d="M13.1216 59.849C13.1216 59.849 14.0375 59.0562 16.1673 59.0165C18.2971 58.9768 20.6104 58.4616 22.2362 58.1445C23.8621 57.8273 24.2973 57.51 24.2973 57.51C24.2973 57.51 24.091 58.3622 23.0834 58.7983C22.0757 59.2346 19.8542 59.7103 18.2971 59.8687C16.7399 60.0272 14.6329 60.0669 13.1216 59.849Z" stroke="none"></path>
	</symbol>
	<symbol viewBox="0 0 24 24" xmlns="http://www.w3.org/2000/svg" id="times-square">
		<path d="M15.53 9.53003L13.06 12L15.53 14.47C15.823 14.763 15.823 15.238 15.53 15.531C15.384 15.677 15.192 15.751 15 15.751C14.808 15.751 14.616 15.678 14.47 15.531L12 13.061L9.53003 15.531C9.38403 15.677 9.192 15.751 9 15.751C8.808 15.751 8.61597 15.678 8.46997 15.531C8.17697 15.238 8.17697 14.763 8.46997 14.47L10.94 12L8.46997 9.53003C8.17697 9.23703 8.17697 8.76199 8.46997 8.46899C8.76297 8.17599 9.23801 8.17599 9.53101 8.46899L12.001 10.939L14.471 8.46899C14.764 8.17599 15.239 8.17599 15.532 8.46899C15.825 8.76199 15.823 9.23703 15.53 9.53003ZM21.75 9V15C21.75 18.722 18.722 21.75 15 21.75H9C5.278 21.75 2.25 18.722 2.25 15V9C2.25 5.278 5.278 2.25 9 2.25H15C18.722 2.25 21.75 5.278 21.75 9ZM20.25 9C20.25 6.105 17.895 3.75 15 3.75H9C6.105 3.75 3.75 6.105 3.75 9V15C3.75 17.895 6.105 20.25 9 20.25H15C17.895 20.25 20.25 17.895 20.25 15V9Z" stroke="none"></path>
	</symbol>
	<symbol viewBox="0 0 16 16" xmlns="http://www.w3.org/2000/svg" id="online">
		<rect x="0.5" y="0.5" width="15" height="15" rx="7.5" fill="none" stroke="#B4DFD7"></rect>
		<rect opacity="0.5" x="2" y="2" width="12" height="12" rx="6" fill="#B4DFD7" stroke="none"></rect>
		<rect x="3" y="3" width="10" height="10" rx="5" fill="#37A692" stroke="none"></rect>
	</symbol>
</svg>