<svg viewBox="0 0 114 114" fill="none" xmlns="http://www.w3.org/2000/svg"><g filter="url(#a)"><path d="M87 57a30 30 0 1 0-3.584 14.22" stroke="#239680" stroke-width="4"/></g><g filter="url(#b)"><path d="M87 57a30 30 0 1 0-3.584 14.22" stroke="#239680" stroke-width="4"/></g><g filter="url(#c)"><path d="M87 57a30 30 0 1 0-3.584 14.22" stroke="#239680" stroke-width="4"/></g><g filter="url(#d)"><path d="M87 57a30 30 0 1 0-3.584 14.22" stroke="#239680" stroke-width="4"/></g><g filter="url(#e)"><path d="M87 57a30 30 0 1 0-3.584 14.22" stroke="#239680" stroke-width="4"/></g><path d="M87 57a30 30 0 1 0-3.584 14.22" stroke="#E1F2EF" stroke-width="4" stroke-linecap="round"/><defs><filter id="a" x="20" y="20" width="74" height="74" filterUnits="userSpaceOnUse" color-interpolation-filters="sRGB"><feFlood flood-opacity="0" result="BackgroundImageFix"/><feBlend in="SourceGraphic" in2="BackgroundImageFix" result="shape"/><feGaussianBlur stdDeviation="2.5" result="effect1_foregroundBlur_576_1712"/></filter><filter id="b" x="15" y="15" width="84" height="84" filterUnits="userSpaceOnUse" color-interpolation-filters="sRGB"><feFlood flood-opacity="0" result="BackgroundImageFix"/><feBlend in="SourceGraphic" in2="BackgroundImageFix" result="shape"/><feGaussianBlur stdDeviation="5" result="effect1_foregroundBlur_576_1712"/></filter><filter id="c" x="10" y="10" width="94" height="94" filterUnits="userSpaceOnUse" color-interpolation-filters="sRGB"><feFlood flood-opacity="0" result="BackgroundImageFix"/><feBlend in="SourceGraphic" in2="BackgroundImageFix" result="shape"/><feGaussianBlur stdDeviation="7.5" result="effect1_foregroundBlur_576_1712"/></filter><filter id="d" x="5" y="5" width="104" height="104" filterUnits="userSpaceOnUse" color-interpolation-filters="sRGB"><feFlood flood-opacity="0" result="BackgroundImageFix"/><feBlend in="SourceGraphic" in2="BackgroundImageFix" result="shape"/><feGaussianBlur stdDeviation="10" result="effect1_foregroundBlur_576_1712"/></filter><filter id="e" x="0" y="0" width="114" height="114" filterUnits="userSpaceOnUse" color-interpolation-filters="sRGB"><feFlood flood-opacity="0" result="BackgroundImageFix"/><feBlend in="SourceGraphic" in2="BackgroundImageFix" result="shape"/><feGaussianBlur stdDeviation="12.5" result="effect1_foregroundBlur_576_1712"/></filter></defs></svg>